<?xml version="1.0" encoding="UTF-8" standalone="no"?>
<!-- Created with Inkscape (http://www.inkscape.org/) -->

<svg
   xmlns:dc="http://purl.org/dc/elements/1.1/"
   xmlns:cc="http://creativecommons.org/ns#"
   xmlns:rdf="http://www.w3.org/1999/02/22-rdf-syntax-ns#"
   xmlns:svg="http://www.w3.org/2000/svg"
   xmlns="http://www.w3.org/2000/svg"
   xmlns:sodipodi="http://sodipodi.sourceforge.net/DTD/sodipodi-0.dtd"
   xmlns:inkscape="http://www.inkscape.org/namespaces/inkscape"
   width="90"
   height="380"
   viewBox="0 0 23.812501 100.54167"
   version="1.1"
   id="svg8"
   inkscape:version="0.92.2 (5c3e80d, 2017-08-06)"
   sodipodi:docname="Multiclock.svg">
  <defs
     id="defs2" />
  <sodipodi:namedview
     id="base"
     pagecolor="#ffffff"
     bordercolor="#666666"
     borderopacity="1.0"
     inkscape:pageopacity="0.0"
     inkscape:pageshadow="2"
     inkscape:zoom="1.4"
     inkscape:cx="26.694909"
     inkscape:cy="170.63765"
     inkscape:document-units="mm"
     inkscape:current-layer="layer1"
     showgrid="false"
     units="px"
     inkscape:snap-bbox="true"
     inkscape:snap-page="true"
     inkscape:bbox-nodes="true"
     inkscape:snap-bbox-edge-midpoints="true"
     inkscape:window-width="1920"
     inkscape:window-height="1057"
     inkscape:window-x="-8"
     inkscape:window-y="-8"
     inkscape:window-maximized="1" />
  <metadata
     id="metadata5">
    <rdf:RDF>
      <cc:Work
         rdf:about="">
        <dc:format>image/svg+xml</dc:format>
        <dc:type
           rdf:resource="http://purl.org/dc/dcmitype/StillImage" />
        <dc:title />
      </cc:Work>
    </rdf:RDF>
  </metadata>
  <g
     inkscape:label="Layer 1"
     inkscape:groupmode="layer"
     id="layer1"
     transform="translate(0,-196.45832)">
    <path
       style="opacity:1;vector-effect:none;fill:#f0f0f0;fill-opacity:1;fill-rule:evenodd;stroke:none;stroke-width:0.48607069;stroke-linecap:butt;stroke-linejoin:round;stroke-miterlimit:4;stroke-dasharray:none;stroke-dashoffset:0;stroke-opacity:1;paint-order:normal"
       d="M 0,296.99999 H 23.8125 V 196.45831 H 0 Z"
       id="rect817"
       inkscape:connector-curvature="0" />
    <g
       aria-label="made with lufu"
       style="font-style:normal;font-variant:normal;font-weight:normal;font-stretch:normal;font-size:2.82222223px;line-height:1.25;font-family:Comfortaa;-inkscape-font-specification:Comfortaa;letter-spacing:0px;word-spacing:0px;fill:#000000;fill-opacity:1;stroke:none;stroke-width:0.26458332"
       id="text825">
      <path
         d="m 2.7960394,290.69664 q 0.066146,0.0165 0.066146,0.051 v 0.12265 q 0.2149739,-0.17363 0.399631,-0.17363 0.2452908,0 0.4657769,0.27009 0.099219,-0.18328 0.3348633,-0.25493 l 0.1116211,-0.0152 q 0.2949002,0 0.468533,0.28525 0.0565,0.11851 0.0565,0.226 v 0.75516 q 0,0.0386 -0.064768,0.051 h 0.00138 q -0.064768,-0.011 -0.064768,-0.062 v -0.73312 q 0,-0.27423 -0.289388,-0.37758 l -0.075792,-0.011 H 4.152029 q -0.2315104,0 -0.3527778,0.26458 -0.016536,0.062 -0.016536,0.10335 v 0.7469 q -0.012402,0.0689 -0.060634,0.0689 h -0.00276 q -0.064768,-0.011 -0.064768,-0.0565 v -0.62287 q 0,-0.27423 -0.078548,-0.34727 -0.1171332,-0.15709 -0.3100586,-0.15709 H 3.250792 q -0.2645833,0 -0.3720703,0.28249 -0.016536,0.0675 -0.016536,0.17226 v 0.67248 q 0,0.0455 -0.064768,0.0565 h -0.00138 q -0.048231,0 -0.062012,-0.0689 v -1.16582 q 0.00827,-0.0827 0.062012,-0.0827 z"
         style="stroke-width:0.26458332"
         id="path827" />
      <path
         d="m 5.6844075,290.67321 q 0.3803385,0 0.6022027,0.37345 0.067524,0.14883 0.067524,0.31281 v 0.59669 q 0,0.0469 -0.066146,0.0579 h -0.00276 q -0.042719,0 -0.06339,-0.0496 v 0.003 l 0.00551,-0.12816 v -0.0868 Q 5.9517469,292.01404 5.7037,292.01404 h -0.039963 q -0.3403754,0 -0.5677517,-0.34313 -0.082682,-0.16399 -0.082682,-0.33211 0,-0.37345 0.3679362,-0.59255 0.1557183,-0.073 0.3031684,-0.073 z m -0.538813,0.66008 v 0.0152 q 0,0.32797 0.3293512,0.49471 0.1061089,0.0386 0.1887912,0.0386 H 5.7037 q 0.2756076,0 0.4533746,-0.27423 0.064768,-0.12954 0.064768,-0.24805 v -0.0207 q 0,-0.31695 -0.3114367,-0.48369 -0.110243,-0.0496 -0.2259982,-0.0496 h -0.00551 q -0.3334852,0 -0.5002278,0.34589 -0.033073,0.10749 -0.033073,0.1819 z"
         style="stroke-width:0.26458332"
         id="path829" />
      <path
         d="M 7.9278536,290.10959 H 7.94439 q 0.06339,0.0124 0.06339,0.0496 v 1.03077 l 0.00551,0.17639 q 0,0.19293 -0.1584744,0.40515 -0.2246202,0.24253 -0.5043619,0.24253 h -0.041341 q -0.2728515,0 -0.5084961,-0.25769 -0.144694,-0.20395 -0.144694,-0.42168 0,-0.32935 0.2935222,-0.55535 0.1860351,-0.12265 0.3858506,-0.12265 0.2576932,0 0.5443251,0.25632 v -0.66697 l -0.00551,-0.0772 q 0.019292,-0.0593 0.053743,-0.0593 z m -1.1382596,1.20992 v 0.0262 q 0,0.34038 0.3555339,0.50574 0.096463,0.0289 0.1736328,0.0289 h 0.031695 q 0.3321072,0 0.5016059,-0.35553 0.027561,-0.10887 0.027561,-0.16812 v -0.0317 q 0,-0.339 -0.362424,-0.50712 -0.1102431,-0.0276 -0.1722548,-0.0276 h -0.020671 q -0.3321072,0 -0.5002278,0.34865 -0.034451,0.10059 -0.034451,0.18052 z"
         style="stroke-width:0.26458332"
         id="path831" />
      <path
         d="m 8.9765408,290.67045 q 0.3886068,0 0.6035807,0.36932 0.073036,0.14331 0.073036,0.31281 v 0.0234 q -0.012402,0.0717 -0.06339,0.0717 H 8.4570204 q 0.07717,0.2632 0.2935221,0.38034 0.1254015,0.0482 0.2356446,0.0482 0.1281575,0 0.2824978,-0.0772 h 0.019293 q 0.060634,0.0124 0.060634,0.0593 v 0.0152 q 0,0.0965 -0.3389974,0.14056 h -0.033073 q -0.361046,0 -0.5801541,-0.339 -0.086816,-0.15847 -0.086816,-0.33348 0,-0.36794 0.3486437,-0.58705 0.1694987,-0.0841 0.3183268,-0.0841 z m -0.5291667,0.64493 h 1.0638455 q 0,-0.15159 -0.1322916,-0.33211 -0.1819011,-0.17088 -0.3610461,-0.17088 h -0.0565 q -0.2659614,0 -0.4368381,0.25907 -0.059256,0.10336 -0.07717,0.24392 z"
         style="stroke-width:0.26458332"
         id="path833" />
      <path
         d="m 10.685308,290.6925 q 0.06477,0 0.09784,0.17777 l 0.257693,0.79099 h 0.05512 q 0.290766,-0.92604 0.303169,-0.94395 0.02618,-0.0207 0.05512,-0.0248 0.05926,0 0.08544,0.14194 l 0.267339,0.82682 h 0.05512 q 0.281119,-0.89159 0.30179,-0.93844 0.02894,-0.0303 0.04961,-0.0303 0.07028,0.0138 0.07028,0.062 l -0.396875,1.23473 q -0.02618,0.0248 -0.05099,0.0248 h -0.0041 q -0.06477,0 -0.09922,-0.17225 -0.242535,-0.73588 -0.242535,-0.78686 h -0.0689 l -0.300412,0.93155 q -0.02067,0.0276 -0.05099,0.0276 h -0.0041 q -0.04685,0 -0.0689,-0.0675 l -0.377583,-1.18787 q 0.01378,-0.0661 0.06615,-0.0661 z"
         style="stroke-width:0.26458332"
         id="path835" />
      <path
         d="m 12.728939,290.31079 q 0.0689,0.0179 0.0689,0.0537 v 0.0303 q 0,0.0427 -0.07717,0.0537 -0.03996,0 -0.05512,-0.0689 0.0124,-0.0689 0.06339,-0.0689 z m 0,0.35277 q 0.0689,0.0179 0.0689,0.0537 v 1.23748 q 0,0.0482 -0.06752,0.0593 h -0.0028 q -0.04961,0 -0.06339,-0.0717 V 290.749 q 0.0096,-0.0854 0.06477,-0.0854 z"
         style="stroke-width:0.26458332"
         id="path837" />
      <path
         d="m 13.456543,290.16747 h 0.01516 q 0.06063,0.0124 0.06063,0.0469 v 0.48921 h 0.245291 l 0.04547,-0.006 q 0.03996,0 0.05788,0.0717 0,0.0413 -0.0565,0.062 l -0.0689,-0.006 h -0.223242 v 0.77722 q 0,0.2191 0.15434,0.27285 l 0.121268,0.01 h 0.05788 q 0.03859,0 0.05099,0.0648 v -0.001 q -0.01103,0.0648 -0.06201,0.0648 h -0.106109 q -0.219108,0 -0.326595,-0.24116 -0.01791,-0.0579 -0.01791,-0.13918 v -0.80753 h -0.136425 l -0.07579,0.006 q -0.05512,-0.0207 -0.05512,-0.0634 0.01102,-0.0648 0.09095,-0.0648 v -0.001 l 0.01516,0.001 h 0.16123 v -0.45751 q 0.0083,-0.0786 0.05237,-0.0786 z"
         style="stroke-width:0.26458332"
         id="path839" />
      <path
         d="m 14.243402,290.11235 h 0.01654 q 0.06339,0.0124 0.06339,0.0482 v 0.71107 q 0.246669,-0.2136 0.461643,-0.2136 0.327973,0 0.525033,0.31144 0.07441,0.13642 0.07441,0.25769 v 0.72761 q 0,0.0482 -0.06752,0.0593 h -0.0014 q -0.04823,0 -0.06477,-0.0634 v -0.69315 q 0,-0.30455 -0.314193,-0.43822 -0.07579,-0.022 -0.151584,-0.022 -0.312814,0 -0.439594,0.33073 -0.02205,0.0717 -0.02205,0.22876 v 0.59807 q 0,0.0482 -0.06752,0.0593 h -0.0014 q -0.04823,0 -0.06477,-0.0634 v -1.77078 q 0.01378,-0.0675 0.05374,-0.0675 z"
         style="stroke-width:0.26458332"
         id="path841" />
      <path
         d="m 16.481337,290.11648 h 0.01654 q 0.06339,0.0124 0.06339,0.0482 v 1.71566 h 0.143316 q 0.03996,0 0.05374,0.0689 v -0.003 q -0.01102,0.0675 -0.06477,0.0675 h -0.201193 q -0.05099,0 -0.06477,-0.0717 v -1.74597 q 0.0083,-0.0799 0.05374,-0.0799 z"
         style="stroke-width:0.26458332"
         id="path843" />
      <path
         d="m 17.149686,290.6677 q 0.06752,0.0165 0.06752,0.0537 v 0.55259 q 0,0.37345 0.216352,0.50437 0.136426,0.10335 0.304547,0.10335 0.322461,0 0.485069,-0.33211 0.03445,-0.10748 0.03445,-0.21359 v -0.59669 q 0.01378,-0.0717 0.06477,-0.0717 0.06752,0.0152 0.06752,0.0634 v 1.22921 q 0,0.04 -0.06615,0.0537 v 0 q -0.06615,-0.0124 -0.06615,-0.0634 v -0.13229 h -0.05374 q -0.214974,0.19568 -0.450619,0.19568 h -0.03583 q -0.304546,0 -0.529166,-0.30041 -0.103353,-0.15985 -0.103353,-0.39825 v -0.56224 q 0.0096,-0.0854 0.06477,-0.0854 z"
         style="stroke-width:0.26458332"
         id="path845" />
      <path
         d="m 19.417936,290.1027 h 0.122645 q 0.04134,0 0.05374,0.0785 0,0.04 -0.07441,0.0565 h -0.07441 q -0.216352,0 -0.285254,0.2384 l -0.0041,0.11438 v 0.10748 h 0.260449 l 0.08268,-0.004 q 0.03721,0 0.05374,0.0689 v 0.011 q 0,0.0386 -0.06477,0.0551 h -0.332107 v 1.06936 l 0.0041,0.0579 q 0,0.0413 -0.07304,0.0579 -0.0441,0 -0.06615,-0.0579 l 0.0055,-0.0579 v -1.06936 H 18.71927 q -0.04134,0 -0.05374,-0.0786 0,-0.0276 0.0565,-0.0565 l 0.09646,0.004 h 0.202572 v -0.12815 q 0,-0.3266 0.282498,-0.44649 z"
         style="stroke-width:0.26458332"
         id="path847" />
      <path
         d="m 19.982933,290.6677 q 0.06752,0.0165 0.06752,0.0537 v 0.55259 q 0,0.37345 0.216352,0.50437 0.136425,0.10335 0.304546,0.10335 0.322461,0 0.485069,-0.33211 0.03445,-0.10748 0.03445,-0.21359 v -0.59669 q 0.01378,-0.0717 0.06477,-0.0717 0.06752,0.0152 0.06752,0.0634 v 1.22921 q 0,0.04 -0.06615,0.0537 v 0 q -0.06615,-0.0124 -0.06615,-0.0634 v -0.13229 h -0.05374 q -0.214974,0.19568 -0.450619,0.19568 h -0.03583 q -0.304546,0 -0.529166,-0.30041 -0.103353,-0.15985 -0.103353,-0.39825 v -0.56224 q 0.0096,-0.0854 0.06477,-0.0854 z"
         style="stroke-width:0.26458332"
         id="path849" />
    </g>
    <text
       xml:space="preserve"
       style="font-style:normal;font-variant:normal;font-weight:normal;font-stretch:condensed;font-size:2.82222223px;line-height:1.25;font-family:Comfortaa;-inkscape-font-specification:'Comfortaa weight=250 Condensed';letter-spacing:0px;word-spacing:0px;fill:#000000;fill-opacity:1;stroke:none;stroke-width:0.26458332"
       x="0"
       y="203.45088"
       id="text836"><tspan
         sodipodi:role="line"
         id="tspan834"
         x="0"
         y="205.99301"
         style="font-style:normal;font-variant:normal;font-weight:normal;font-stretch:condensed;font-family:Comfortaa;-inkscape-font-specification:'Comfortaa weight=250 Condensed';stroke-width:0.26458332" /></text>
    <text
       xml:space="preserve"
       style="font-style:normal;font-variant:normal;font-weight:bold;font-stretch:expanded;font-size:4.93888903px;line-height:1.25;font-family:Comfortaa;-inkscape-font-specification:'Comfortaa Bold Expanded';letter-spacing:0px;word-spacing:0px;fill:#000000;fill-opacity:1;stroke:none;stroke-width:0.26458332"
       x="6.3692927"
       y="205.35664"
       id="text6382"><tspan
         sodipodi:role="line"
         id="tspan6380"
         x="6.3692927"
         y="205.35664"
         style="font-size:4.93888903px;stroke-width:0.26458332">clock</tspan></text>
  </g>
</svg>
